HIERARCHY
ROOT Hips
{
  OFFSET 3.13124 94.3669 -3.18751
  CHANNELS  6 Xposition Yposition Zposition Zrotation Xrotation Yrotation
  JOINT LeftUpLeg
  {
    OFFSET 8.64259 1.95398 -2.38835
    CHANNELS 3 Zrotation Xrotation Yrotation
    JOINT LeftLeg
    {
      OFFSET 43.7702 0 0
      CHANNELS 3 Zrotation Xrotation Yrotation
      JOINT LeftFoot
      {
        OFFSET 40.6238 0 0
        CHANNELS 3 Zrotation Xrotation Yrotation
        JOINT LeftToeBase
        {
          OFFSET 12.7242 0 0
          CHANNELS 3 Zrotation Xrotation Yrotation
          End Site
          {
            OFFSET 0 0 0
          }
        }
      }
    }
  }
  JOINT RightUpLeg
  {
    OFFSET -8.2249 1.95398 -2.59336
    CHANNELS 3 Zrotation Xrotation Yrotation
    JOINT RightLeg
    {
      OFFSET 43.5653 0 0
      CHANNELS 3 Zrotation Xrotation Yrotation
      JOINT RightFoot
      {
        OFFSET 40.6238 0 0
        CHANNELS 3 Zrotation Xrotation Yrotation
        JOINT RightToeBase
        {
          OFFSET 12.7242 0 0
          CHANNELS 3 Zrotation Xrotation Yrotation
          End Site
          {
            OFFSET 0 0 0
          }
        }
      }
    }
  }
  JOINT Spine
  {
    OFFSET 0.165834 0.87714 6.61349
    CHANNELS 3 Zrotation Xrotation Yrotation
    JOINT Spine1
    {
      OFFSET 7.38962 1.71661e-005 0
      CHANNELS 3 Zrotation Xrotation Yrotation
      JOINT Spine2
      {
        OFFSET 11.9445 1.14441e-005 0
        CHANNELS 3 Zrotation Xrotation Yrotation
        JOINT Spine3
        {
          OFFSET 14.7254 4.19617e-005 0
          CHANNELS 3 Zrotation Xrotation Yrotation
          JOINT Spine4
          {
            OFFSET 10.9679 0 0
            CHANNELS 3 Zrotation Xrotation Yrotation
            JOINT RightShoulder
            {
              OFFSET 2.46616 -1.6653 3.69651
              CHANNELS 3 Zrotation Xrotation Yrotation
              JOINT RightArm
              {
                OFFSET 13.0012 0 0
                CHANNELS 3 Zrotation Xrotation Yrotation
                JOINT RightForeArm
                {
                  OFFSET 28.7848 1.52588e-005 0
                  CHANNELS 3 Zrotation Xrotation Yrotation
                  JOINT RightHand
                  {
                    OFFSET 26.5688 1.52588e-005 0
                    CHANNELS 3 Zrotation Xrotation Yrotation
                    End Site
                    {
                      OFFSET 0 0 0
                    }
                  }
                }
              }
            }
            JOINT LeftShoulder
            {
              OFFSET 2.38034 -1.29275 -3.75231
              CHANNELS 3 Zrotation Xrotation Yrotation
              JOINT LeftArm
              {
                OFFSET 16.3182 6.10352e-005 0
                CHANNELS 3 Zrotation Xrotation Yrotation
                JOINT LeftForeArm
                {
                  OFFSET 27.0901 0 0
                  CHANNELS 3 Zrotation Xrotation Yrotation
                  JOINT LeftHand
                  {
                    OFFSET 24.5451 1.52588e-005 0
                    CHANNELS 3 Zrotation Xrotation Yrotation
                    End Site
                    {
                      OFFSET 0 0 0
                    }
                  }
                }
              }
            }
            JOINT Neck
            {
              OFFSET 5.0226 -0.0266342 0
              CHANNELS 3 Zrotation Xrotation Yrotation
              JOINT Head
              {
                OFFSET 6.69363 2.86102e-005 0
                CHANNELS 3 Zrotation Xrotation Yrotation
                End Site
                {
                  OFFSET 0 0 0
                }
              }
            }
          }
        }
      }
    }
  }
}
MOTION
Frames:	5
Frame Time:	0.0333333
-5.13102 93.1047 4.24261 85.8984 -89.9971 85.8895 -176.914 2.04008 95.525 -7.28523 3.06598 0.186772 62.5657 1.70055 0.866673 28.7808 5.49112e-006 6.13372e-006 176.74 2.12604 84.075 -7.38436 -3.31742 -0.189666 62.5963 -1.45493 -0.742458 28.7808 1.44588e-005 2.04273e-005 -0.000174055 6.33748 -89.9982 14.199 1.80087e-005 6.01562e-006 2.52803 -8.3128e-006 -7.47773e-006 -20.0071 0.00478743 1.39674e-005 0.00553191 0.00479332 -6.86859e-006 101.243 -18.5355 -84.448 -6.86971 30.1274 -17.1508 -6.36446 -31.83 -8.30123 1.66319 0.0875363 0.676462 -78.9752 -21.5882 94.3405 17.1137 -33.0203 -15.6571 5.46299 33.4666 -8.32525 -1.95886 -0.0719051 0.832105 1.75464 2.39182e-006 -9.58568e-006 -7.41221 -0.000294043 0.000219336 
-5.17458 92.9828 4.26331 86.0036 -89.9473 85.8796 -176.805 1.50633 95.4335 -6.17734 3.09306 0.186697 62.3287 1.60425 0.78605 28.7808 5.49112e-006 6.13372e-006 177.179 5.80504 83.5709 -15.0435 -5.70827 -0.345638 65.104 -0.343152 -0.157155 28.7808 1.44588e-005 2.04273e-005 -0.00917328 6.33642 -89.884 14.199 0.000138028 0.00017022 2.52803 0.000126005 0.000148274 -20.0071 0.00478743 0.000211387 0.00553189 0.00479332 0.000185303 101.289 -18.5563 -84.374 -7.10298 29.6467 -18.3311 -4.64872 -31.0633 -5.1197 0.931506 0.0300967 -0.844989 -78.9115 -21.6068 94.4578 17.2629 -32.4507 -17.3967 3.2159 33.0323 -4.2836 -0.918041 -0.0443349 -0.743229 1.88496 -0.0145095 -0.0468074 -7.58961 -0.0385279 0.115483 
-5.18478 93.0793 4.29259 84.9027 -89.8432 84.9535 -176.721 0.505436 95.5915 -4.06473 3.02231 0.174588 61.9452 1.52031 0.769796 28.7808 5.49112e-006 6.13372e-006 176.609 1.15436 84.1824 -5.46376 -3.01621 -0.171962 61.9244 -1.46364 -0.735484 28.7808 1.44588e-005 2.04273e-005 0.00794964 6.33726 -90.0525 14.199 0.0111379 0.020423 2.52803 0.0119981 0.0199192 -20.0071 0.00471753 0.0228746 0.00553002 0.00472341 0.0228625 101.359 -18.7654 -84.1519 -7.26826 29.7403 -18.3403 -4.65387 -31.1477 -5.12225 1.22967 0.0400877 -0.906654 -78.9322 -21.4973 94.4258 17.3017 -32.4966 -17.4497 3.22427 33.2213 -4.2922 -1.0208 -0.0484101 -0.80017 2.01556 -0.0960803 -0.423296 -7.73766 -0.0562602 0.502871 
-5.19978 92.9001 4.30744 83.6892 -89.741 83.812 -176.738 0.395502 95.6674 -3.82002 2.78281 0.159732 62.9881 1.39221 0.71421 28.7808 5.49112e-006 6.13372e-006 177.007 4.00152 84.1972 -11.4522 -3.22125 -0.193252 64.4577 -1.41281 -0.727841 28.7808 1.44588e-005 2.04273e-005 0.0102934 6.33537 -90.1504 14.199 0.00166023 0.0292714 2.52803 0.00294261 0.0291861 -20.0071 -0.00723939 0.028277 0.00553548 -0.00723839 0.0282537 101.399 -18.8343 -84.0547 -7.45261 29.8043 -18.2475 -4.67568 -31.3614 -5.1335 1.1486 0.03996 -0.974368 -78.9179 -21.4585 94.4505 17.3635 -32.513 -17.4144 3.23185 33.3882 -4.30012 -1.0017 -0.0484046 -0.769504 2.14273 -0.0888459 -0.532438 -7.80654 -0.0305673 0.633715 
-5.19004 92.7436 4.31048 87.3928 -89.6611 87.7408 -176.765 0.392194 95.8739 -3.8223 2.49 0.142573 64.3761 1.34054 0.704882 28.7808 5.49112e-006 6.13372e-006 176.734 2.22386 84.5348 -7.83446 -2.38621 -0.144044 63.3002 -1.75659 -0.88359 28.7808 1.44588e-005 2.04273e-005 0.0202499 6.3366 -90.3919 14.199 -0.016083 0.0330378 2.52804 -0.0146127 0.0336874 -20.0071 -0.0249535 0.0231715 0.005542 -0.0249651 0.0231625 101.41 -18.8556 -84.0159 -7.53349 29.8328 -18.2091 -4.66801 -31.2897 -5.1295 0.909962 0.039627 -0.847267 -78.8801 -21.4277 94.5406 17.419 -32.515 -17.3448 3.24015 33.5621 -4.30851 -0.926373 -0.0483685 -0.745481 2.24461 -0.0621265 -0.559373 -7.81211 0.00269534 0.626481 
